<svg xmlns="http://www.w3.org/2000/svg" xmlns:xlink="http://www.w3.org/1999/xlink" width="250" zoomAndPan="magnify" viewBox="0 0 187.5 112.499997" height="150" preserveAspectRatio="xMidYMid meet" version="1.0"><path fill="#fad00a" d="M 128.230469 42.027344 C 127.914062 42.34375 126.222656 41.21875 125.195312 40.390625 C 124.167969 39.554688 123.519531 38.78125 123.382812 38.617188 C 121.957031 36.914062 120.273438 35.453125 118.765625 33.832031 C 102.476562 16.226562 92.300781 14.535156 92.300781 14.535156 C 81.707031 11.496094 68.65625 16.273438 65.753906 27.792969 C 62.507812 40.671875 74.382812 48.875 81.878906 57.167969 C 86.480469 62.261719 90.519531 67.816406 94.183594 73.636719 C 94.746094 74.53125 95.28125 75.429688 95.800781 76.339844 C 96.355469 77.304688 97.539062 79.148438 97.355469 79.347656 C 97.175781 79.550781 95.28125 78.066406 94.375 77.339844 C 90.261719 74.054688 86.523438 70.355469 82.886719 66.570312 C 75.976562 59.398438 69.417969 51.792969 61.445312 45.726562 C 51.730469 38.34375 38.390625 31.132812 27.058594 39.726562 C 15.097656 48.800781 22.355469 65.71875 26.367188 77.347656 C 26.402344 77.457031 26.523438 77.511719 26.632812 77.484375 L 45.347656 71.820312 C 45.464844 71.78125 45.527344 71.664062 45.484375 71.546875 C 44.554688 68.792969 43.65625 66.027344 42.847656 63.242188 C 42.617188 62.460938 42.0625 59.46875 41.5 57.140625 C 41.453125 56.96875 41.628906 56.832031 41.789062 56.894531 C 42.644531 57.230469 43.355469 57.523438 43.429688 57.558594 C 43.4375 57.558594 43.4375 57.570312 43.445312 57.570312 C 52.039062 62.417969 58.804688 70.109375 65.492188 77.210938 C 72.628906 84.796875 80.121094 92.863281 89.300781 98.039062 C 101.039062 104.648438 115.191406 99.257812 117.609375 85.453125 C 119.726562 73.402344 110.769531 61.632812 103.851562 52.628906 C 100.292969 48.011719 96.5 43.535156 92.453125 39.34375 C 90.808594 37.632812 88.960938 36.050781 87.335938 34.316406 C 87.179688 34.152344 87.351562 33.886719 87.570312 33.960938 C 89.308594 34.507812 90.992188 35.597656 92.410156 36.507812 C 96.828125 39.34375 100.539062 43.21875 103.996094 47.128906 C 111.445312 55.53125 120.546875 63.78125 132.714844 61.632812 C 138.890625 60.542969 144.410156 56.75 147.191406 51.058594 C 150.601562 44.082031 148.484375 36.871094 144.875 30.496094 C 138.617188 19.472656 130.496094 9.351562 121.792969 0.121094 C 121.710938 0.0390625 121.582031 0.03125 121.492188 0.101562 L 106.53125 12.617188 C 112.714844 20.589844 124.195312 35.453125 127.078125 39.644531 C 127.667969 40.445312 128.511719 41.746094 128.230469 42.027344 Z M 128.230469 42.027344 " fill-opacity="1" fill-rule="nonzero"/><path fill="#000000" d="M 23.847656 60.46875 C 23.847656 54.75 25.621094 49.410156 30.839844 45.445312 C 40.21875 38.335938 51.894531 40.300781 66.5625 51.449219 C 72.949219 56.296875 78.484375 62.1875 83.84375 67.882812 C 85.269531 69.390625 86.6875 70.910156 88.125 72.402344 C 91.152344 75.546875 94.738281 79.148438 98.613281 82.339844 C 98.292969 81.804688 97.984375 81.304688 97.683594 80.824219 C 93.726562 74.546875 89.746094 69.210938 85.488281 64.507812 C 84.125 63 82.640625 61.515625 81.070312 59.953125 C 74.15625 53.058594 66.316406 45.238281 69.117188 34.125 C 70.390625 29.066406 73.546875 24.964844 78.25 22.265625 C 83.742188 19.117188 90.746094 18.289062 97 20.0625 C 98.019531 20.253906 108.1875 22.566406 124.039062 39.679688 C 124.640625 40.328125 125.285156 40.972656 125.914062 41.589844 C 126.847656 42.507812 127.8125 43.464844 128.6875 44.507812 C 129.058594 44.945312 129.433594 45.328125 129.777344 45.636719 C 126.25 40.753906 117.328125 29.167969 110.132812 19.882812 L 109.480469 19.035156 L 125.25 5.832031 C 125.785156 5.386719 126.585938 5.433594 127.058594 5.941406 C 137.007812 16.5 144.609375 26.503906 150.292969 36.523438 C 154.960938 44.753906 155.730469 51.820312 152.648438 58.125 C 149.804688 63.933594 144.089844 68.117188 137.363281 69.308594 C 124.730469 71.539062 115.234375 63.042969 107.613281 54.449219 C 104.511719 50.949219 101.121094 47.363281 97.203125 44.65625 C 97.367188 44.828125 97.539062 44.992188 97.703125 45.164062 C 101.585938 49.183594 105.441406 53.6875 109.179688 58.550781 C 116.007812 67.4375 125.367188 79.605469 123.15625 92.234375 C 121.992188 98.875 118.226562 104.003906 112.542969 106.6875 C 106.625 109.488281 99.402344 109.078125 93.210938 105.585938 C 84.105469 100.457031 76.757812 92.652344 69.65625 85.105469 L 69.136719 84.558594 C 68.492188 83.878906 67.855469 83.195312 67.210938 82.503906 C 61.207031 76.09375 55.003906 69.453125 47.410156 65.152344 C 47.574219 65.898438 47.730469 66.636719 47.867188 67.289062 C 48.074219 68.273438 48.265625 69.191406 48.355469 69.527344 C 49.066406 71.957031 49.902344 74.585938 50.984375 77.792969 C 51.101562 78.128906 51.074219 78.503906 50.902344 78.820312 C 50.738281 79.140625 50.449219 79.375 50.113281 79.476562 L 31.40625 85.140625 C 30.722656 85.351562 30.003906 84.988281 29.777344 84.304688 C 29.46875 83.40625 29.140625 82.476562 28.796875 81.515625 C 26.550781 75.175781 23.847656 67.527344 23.847656 60.46875 Z M 102.949219 85.933594 C 102.949219 86.214844 102.847656 86.460938 102.632812 86.699219 C 101.785156 87.625 100.8125 86.933594 98.136719 84.804688 C 93.820312 81.359375 89.855469 77.375 86.542969 73.9375 C 85.097656 72.4375 83.667969 70.917969 82.242188 69.398438 C 76.941406 63.78125 71.464844 57.960938 65.226562 53.222656 C 51.46875 42.753906 40.652344 40.789062 32.179688 47.21875 C 21.792969 55.09375 26.832031 69.347656 30.878906 80.785156 C 31.113281 81.46875 31.351562 82.132812 31.578125 82.777344 L 48.59375 77.621094 C 47.636719 74.773438 46.882812 72.382812 46.238281 70.144531 C 46.121094 69.726562 45.9375 68.855469 45.703125 67.746094 C 45.464844 66.609375 45.164062 65.199219 44.875 63.988281 C 44.753906 63.507812 44.917969 63.007812 45.292969 62.6875 C 45.664062 62.363281 46.191406 62.28125 46.648438 62.460938 C 47.519531 62.808594 48.246094 63.105469 48.320312 63.132812 L 48.449219 63.199219 C 56.351562 67.65625 62.6875 74.429688 68.820312 80.988281 C 69.464844 81.675781 70.101562 82.359375 70.738281 83.042969 L 71.257812 83.585938 C 78.25 91.015625 85.480469 98.691406 94.292969 103.660156 C 99.855469 106.796875 106.324219 107.175781 111.597656 104.6875 C 116.609375 102.3125 119.9375 97.757812 120.972656 91.84375 C 123.03125 80.175781 114.007812 68.453125 107.421875 59.886719 C 103.742188 55.09375 99.929688 50.65625 96.109375 46.691406 C 95.363281 45.917969 94.554688 45.144531 93.765625 44.402344 C 92.835938 43.519531 91.871094 42.601562 90.972656 41.644531 C 90.5625 41.207031 90.5 40.542969 90.816406 40.035156 C 91.144531 39.527344 91.773438 39.289062 92.34375 39.472656 C 94.183594 40.054688 95.945312 41.179688 97.355469 42.089844 L 97.449219 42.144531 C 101.996094 45.054688 105.8125 49.066406 109.269531 52.96875 C 116.84375 61.515625 125.449219 69.15625 136.972656 67.117188 C 143 66.054688 148.121094 62.324219 150.648438 57.140625 C 153.386719 51.539062 152.640625 45.15625 148.355469 37.605469 C 142.882812 27.949219 135.570312 18.273438 126.019531 8.070312 L 112.527344 19.363281 C 120.328125 29.429688 129.851562 41.816406 132.460938 45.601562 C 133.578125 47.230469 134.371094 48.539062 133.46875 49.429688 C 133.125 49.773438 132.304688 50.574219 128.957031 47.855469 C 128.457031 47.445312 127.714844 46.78125 127.003906 45.945312 C 126.195312 44.984375 125.304688 44.101562 124.367188 43.171875 C 123.71875 42.535156 123.058594 41.882812 122.421875 41.191406 C 106.660156 24.175781 96.65625 22.257812 96.566406 22.238281 L 96.445312 22.210938 C 90.746094 20.574219 84.351562 21.320312 79.367188 24.191406 C 75.203125 26.59375 72.410156 30.214844 71.285156 34.679688 C 68.792969 44.574219 75.839844 51.601562 82.652344 58.394531 C 84.25 59.988281 85.753906 61.488281 87.152344 63.042969 C 91.492188 67.84375 95.554688 73.273438 99.574219 79.660156 C 100.101562 80.496094 100.640625 81.386719 101.222656 82.394531 C 101.339844 82.597656 101.476562 82.832031 101.621094 83.078125 C 102.449219 84.46875 102.949219 85.304688 102.949219 85.933594 Z M 126.667969 7.53125 Z M 126.667969 7.53125 " fill-opacity="1" fill-rule="nonzero"/></svg>