<svg xmlns="http://www.w3.org/2000/svg" xmlns:xlink="http://www.w3.org/1999/xlink" width="250" zoomAndPan="magnify" viewBox="0 0 187.5 112.499997" height="150" preserveAspectRatio="xMidYMid meet" version="1.0"><defs><g/><clipPath id="c6afb7c32e"><path d="M 33.121094 85 L 154 85 L 154 112 L 33.121094 112 Z M 33.121094 85 " clip-rule="nonzero"/></clipPath><clipPath id="a4dc2b9f8c"><path d="M 33.121094 78 L 154 78 L 154 105 L 33.121094 105 Z M 33.121094 78 " clip-rule="nonzero"/></clipPath><clipPath id="e3ce656dab"><path d="M 33.121094 0 L 154.085938 0 L 154.085938 112.003906 L 33.121094 112.003906 Z M 33.121094 0 " clip-rule="nonzero"/></clipPath></defs><path fill="#5bc4bd" d="M 58.542969 0.507812 L 128.648438 0.507812 C 132.011719 0.507812 134.761719 3.253906 134.761719 6.613281 L 134.761719 64.773438 C 134.761719 68.128906 132.011719 70.875 128.648438 70.875 L 124.253906 70.875 L 124.253906 80.640625 C 124.253906 82.308594 122.890625 83.671875 121.21875 83.671875 L 65.976562 83.671875 C 64.304688 83.671875 62.941406 82.308594 62.941406 80.640625 L 62.941406 70.875 L 58.542969 70.875 C 55.183594 70.875 52.433594 68.128906 52.433594 64.773438 L 52.433594 6.613281 C 52.429688 3.253906 55.183594 0.507812 58.542969 0.507812 Z M 58.542969 0.507812 " fill-opacity="1" fill-rule="evenodd"/><path fill="#fefbdb" d="M 60.742188 6.613281 L 126.453125 6.613281 C 127.464844 6.613281 128.292969 7.4375 128.292969 8.449219 L 128.292969 58.53125 C 128.292969 59.539062 127.464844 60.367188 126.453125 60.367188 L 60.742188 60.367188 C 59.730469 60.367188 58.902344 59.539062 58.902344 58.53125 L 58.902344 8.449219 C 58.902344 7.4375 59.730469 6.613281 60.742188 6.613281 Z M 60.742188 6.613281 " fill-opacity="1" fill-rule="evenodd"/><g clip-path="url(#c6afb7c32e)"><path fill="#fad00a" d="M 139.886719 85.75 L 47.308594 85.75 C 46.574219 85.75 46.417969 86.5 45.972656 87.085938 L 33.652344 103.328125 L 33.746094 110.160156 C 33.757812 110.894531 34.347656 111.496094 35.085938 111.496094 L 152.109375 111.496094 C 152.847656 111.496094 153.441406 110.894531 153.449219 110.160156 L 153.527344 103.1875 L 141.222656 87.085938 C 140.777344 86.5 140.621094 85.75 139.886719 85.75 Z M 139.886719 85.75 " fill-opacity="1" fill-rule="evenodd"/></g><g clip-path="url(#a4dc2b9f8c)"><path fill="#fee56f" d="M 139.886719 78.503906 L 47.308594 78.503906 C 46.574219 78.503906 46.316406 79.191406 45.972656 79.839844 L 33.746094 102.914062 C 33.402344 103.5625 33.871094 104.246094 34.605469 104.246094 L 152.660156 104.246094 C 153.394531 104.246094 153.792969 103.5625 153.449219 102.914062 L 141.222656 79.839844 C 140.878906 79.191406 140.621094 78.503906 139.886719 78.503906 Z M 139.886719 78.503906 " fill-opacity="1" fill-rule="evenodd"/></g><path fill="#f26b6d" d="M 120.710938 68.042969 C 121.984375 68.042969 123.023438 67.007812 123.023438 65.738281 C 123.023438 64.46875 121.984375 63.429688 120.710938 63.429688 C 119.441406 63.429688 118.402344 64.46875 118.402344 65.738281 C 118.402344 67.007812 119.441406 68.042969 120.710938 68.042969 Z M 120.710938 68.042969 " fill-opacity="1" fill-rule="evenodd"/><g clip-path="url(#e3ce656dab)"><path fill="#010101" d="M 111.652344 64.8125 C 111.140625 64.8125 110.726562 65.226562 110.726562 65.738281 C 110.726562 66.25 111.140625 66.660156 111.652344 66.660156 C 112.164062 66.660156 112.578125 66.25 112.578125 65.738281 C 112.578125 65.226562 112.164062 64.8125 111.652344 64.8125 Z M 59.082031 6.792969 Z M 152.660156 103.738281 L 34.605469 103.738281 C 34.507812 103.738281 34.417969 103.71875 34.347656 103.679688 C 34.28125 103.644531 34.230469 103.597656 34.191406 103.539062 C 34.183594 103.523438 34.175781 103.507812 34.167969 103.488281 C 34.152344 103.449219 34.140625 103.402344 34.140625 103.355469 C 34.140625 103.292969 34.160156 103.21875 34.195312 103.148438 L 35.144531 101.359375 L 36.625 98.570312 L 46.421875 80.074219 L 46.539062 79.851562 C 46.757812 79.417969 46.964844 79.011719 47.308594 79.011719 L 139.882812 79.011719 C 140.226562 79.011719 140.4375 79.417969 140.65625 79.851562 L 140.769531 80.074219 L 150.417969 98.28125 L 151.863281 101.007812 L 152.996094 103.148438 C 153.042969 103.234375 153.0625 103.316406 153.0625 103.394531 C 153.0625 103.460938 153.046875 103.519531 153.019531 103.570312 C 153.015625 103.570312 153.015625 103.574219 153.015625 103.574219 C 152.984375 103.621094 152.941406 103.660156 152.890625 103.6875 C 152.832031 103.722656 152.753906 103.738281 152.660156 103.738281 Z M 123.539062 81.640625 L 65.753906 81.640625 C 65.722656 81.636719 65.691406 81.636719 65.65625 81.640625 L 50.980469 81.640625 C 50.558594 81.640625 50.230469 81.742188 49.964844 81.914062 C 49.695312 82.089844 49.507812 82.332031 49.375 82.613281 L 48.140625 85.242188 L 47.898438 85.75 L 47.660156 86.261719 L 43.539062 95.015625 C 43.316406 95.484375 43.179688 95.984375 43.179688 96.449219 C 43.179688 96.800781 43.257812 97.136719 43.429688 97.4375 C 43.605469 97.738281 43.875 97.992188 44.257812 98.171875 C 44.625 98.34375 45.097656 98.445312 45.6875 98.445312 L 141.515625 98.445312 C 142.109375 98.445312 142.578125 98.34375 142.949219 98.171875 C 143.328125 97.992188 143.597656 97.738281 143.773438 97.4375 C 143.945312 97.136719 144.023438 96.800781 144.023438 96.449219 C 144.023438 95.984375 143.886719 95.484375 143.664062 95.015625 L 139.542969 86.261719 L 139.304688 85.75 L 139.066406 85.242188 L 137.828125 82.613281 C 137.695312 82.332031 137.511719 82.089844 137.242188 81.914062 C 136.976562 81.742188 136.644531 81.640625 136.222656 81.640625 Z M 50.980469 82.65625 C 50.773438 82.65625 50.625 82.695312 50.523438 82.761719 C 50.421875 82.828125 50.351562 82.925781 50.296875 83.042969 L 49.339844 85.070312 L 54.027344 85.070312 L 54.90625 82.65625 Z M 111.667969 82.65625 L 111.75 83.164062 L 111.835938 83.671875 L 111.917969 84.179688 L 112.066406 85.070312 L 116.671875 85.070312 L 116.476562 84.179688 L 116.257812 83.164062 L 116.144531 82.65625 Z M 117.039062 83.164062 L 117.257812 84.179688 L 117.449219 85.070312 L 121.902344 85.070312 L 121.675781 84.148438 L 121.550781 83.652344 L 121.429688 83.152344 L 121.308594 82.65625 L 116.929688 82.65625 Z M 122.292969 83.476562 L 122.414062 83.972656 L 122.683594 85.070312 L 127.410156 85.070312 L 126.722656 82.65625 L 122.089844 82.65625 L 122.167969 82.976562 Z M 128.203125 85.070312 L 132.410156 85.070312 L 131.53125 82.65625 L 127.515625 82.65625 Z M 106.75 82.65625 L 106.9375 84.179688 L 107.050781 85.070312 L 111.292969 85.070312 L 111.144531 84.179688 L 111.0625 83.671875 L 110.976562 83.164062 L 110.894531 82.65625 Z M 122.871094 85.832031 L 122.976562 86.257812 L 123.625 88.886719 L 128.5 88.886719 L 127.75 86.257812 L 127.628906 85.832031 Z M 117.617188 85.832031 L 117.707031 86.257812 L 118.277344 88.886719 L 122.839844 88.886719 L 122.191406 86.257812 L 122.089844 85.832031 Z M 129.292969 88.886719 L 133.800781 88.886719 L 132.84375 86.257812 L 132.6875 85.832031 L 128.421875 85.832031 L 128.542969 86.257812 Z M 112.191406 85.832031 L 112.257812 86.257812 L 112.691406 88.886719 L 117.496094 88.886719 L 116.925781 86.257812 L 116.835938 85.832031 Z M 123.808594 89.652344 L 124.675781 93.179688 L 129.722656 93.179688 L 128.714844 89.652344 Z M 130.519531 93.179688 L 135.363281 93.179688 L 134.078125 89.652344 L 129.511719 89.652344 Z M 118.441406 89.652344 L 119.207031 93.179688 L 123.894531 93.179688 L 123.027344 89.652344 Z M 124.863281 93.945312 L 125.722656 97.425781 L 130.9375 97.425781 L 129.941406 93.945312 Z M 131.730469 97.425781 L 136.910156 97.425781 L 135.640625 93.945312 L 130.738281 93.945312 Z M 101.59375 82.65625 L 101.734375 84.179688 L 101.820312 85.070312 L 106.277344 85.070312 L 106.167969 84.179688 L 105.980469 82.65625 Z M 100.828125 82.65625 L 96.570312 82.65625 L 96.59375 83.164062 L 96.632812 84.179688 L 96.667969 85.070312 L 101.054688 85.070312 L 100.972656 84.179688 L 100.925781 83.671875 L 100.875 83.164062 Z M 96.699219 85.832031 L 96.714844 86.257812 L 96.820312 88.886719 L 101.421875 88.886719 L 101.171875 86.257812 L 101.128906 85.832031 Z M 101.894531 85.832031 L 101.933594 86.257812 L 102.183594 88.886719 L 106.75 88.886719 L 106.425781 86.257812 L 106.375 85.832031 Z M 96.847656 89.652344 L 96.988281 93.179688 L 101.828125 93.179688 L 101.492188 89.652344 Z M 97.019531 93.945312 L 97.160156 97.425781 L 102.234375 97.425781 L 101.902344 93.945312 Z M 96.257812 93.945312 L 90.992188 93.945312 L 90.851562 97.425781 L 96.394531 97.425781 Z M 96.085938 89.652344 L 91.160156 89.652344 L 91.019531 93.179688 L 96.226562 93.179688 Z M 95.953125 86.257812 L 95.933594 85.832031 L 91.3125 85.832031 L 91.296875 86.257812 L 91.191406 88.886719 L 96.054688 88.886719 Z M 95.847656 83.671875 L 95.808594 82.65625 L 91.441406 82.65625 L 91.402344 83.671875 L 91.378906 84.179688 L 91.34375 85.070312 L 95.90625 85.070312 L 95.871094 84.179688 Z M 102.257812 89.652344 L 102.59375 93.179688 L 107.28125 93.179688 L 106.84375 89.652344 Z M 102.667969 93.945312 L 103 97.425781 L 107.804688 97.425781 L 107.375 93.945312 Z M 107.519531 88.886719 L 111.921875 88.886719 L 111.488281 86.257812 L 111.417969 85.832031 L 107.144531 85.832031 L 107.195312 86.257812 Z M 108.050781 93.179688 L 112.625 93.179688 L 112.046875 89.652344 L 107.613281 89.652344 Z M 108.574219 97.425781 L 113.324219 97.425781 L 112.75 93.945312 L 108.144531 93.945312 Z M 113.398438 93.179688 L 118.425781 93.179688 L 117.660156 89.652344 L 112.816406 89.652344 Z M 114.097656 97.425781 L 119.34375 97.425781 L 118.589844 93.945312 L 113.523438 93.945312 Z M 120.125 97.425781 L 124.9375 97.425781 L 124.082031 93.945312 L 119.371094 93.945312 Z M 133.222656 85.070312 L 137.863281 85.070312 L 136.910156 83.042969 C 136.855469 82.925781 136.78125 82.828125 136.683594 82.761719 C 136.582031 82.695312 136.433594 82.65625 136.226562 82.65625 L 132.34375 82.65625 Z M 138.136719 85.832031 L 133.5 85.832031 L 133.65625 86.257812 L 134.613281 88.886719 L 139.660156 88.886719 L 138.421875 86.257812 L 138.21875 85.824219 C 138.191406 85.832031 138.164062 85.832031 138.136719 85.832031 Z M 137.71875 97.425781 L 141.515625 97.425781 C 141.957031 97.425781 142.285156 97.363281 142.519531 97.253906 C 142.699219 97.171875 142.820312 97.058594 142.894531 96.925781 C 142.972656 96.792969 143.007812 96.628906 143.007812 96.449219 C 143.007812 96.136719 142.90625 95.785156 142.746094 95.445312 L 142.042969 93.945312 L 136.453125 93.945312 Z M 90.226562 93.945312 L 85.347656 93.945312 L 85.015625 97.425781 L 90.089844 97.425781 Z M 90.398438 89.652344 L 85.757812 89.652344 L 85.421875 93.179688 L 90.257812 93.179688 Z M 90.535156 86.257812 L 90.550781 85.832031 L 86.121094 85.832031 L 86.082031 86.257812 L 85.832031 88.886719 L 90.429688 88.886719 Z M 90.636719 83.671875 L 90.675781 82.65625 L 86.425781 82.65625 L 86.375 83.164062 L 86.328125 83.671875 L 86.277344 84.179688 L 86.195312 85.070312 L 90.582031 85.070312 L 90.617188 84.179688 Z M 84.585938 93.945312 L 79.929688 93.945312 L 79.46875 97.425781 L 84.253906 97.425781 Z M 84.992188 89.652344 L 80.496094 89.652344 L 80.03125 93.179688 L 84.65625 93.179688 Z M 85.316406 86.257812 L 85.355469 85.832031 L 81 85.832031 L 80.941406 86.257812 L 80.597656 88.886719 L 85.066406 88.886719 Z M 85.5625 83.671875 L 85.609375 83.164062 L 85.660156 82.65625 L 81.417969 82.65625 L 81.351562 83.164062 L 81.28125 83.671875 L 81.214844 84.179688 L 81.097656 85.070312 L 85.429688 85.070312 L 85.511719 84.179688 Z M 79.160156 93.945312 L 74.496094 93.945312 L 73.925781 97.425781 L 78.703125 97.425781 Z M 79.726562 89.652344 L 75.203125 89.652344 L 74.625 93.179688 L 79.261719 93.179688 Z M 80.175781 86.257812 L 80.230469 85.832031 L 75.832031 85.832031 L 75.761719 86.257812 L 75.328125 88.886719 L 79.828125 88.886719 Z M 80.515625 83.671875 L 80.648438 82.65625 L 76.355469 82.65625 L 76.269531 83.164062 L 76.105469 84.179688 L 75.957031 85.070312 L 80.332031 85.070312 L 80.449219 84.179688 Z M 73.726562 93.945312 L 68.65625 93.945312 L 67.902344 97.425781 L 73.152344 97.425781 Z M 74.429688 89.652344 L 69.585938 89.652344 L 68.824219 93.179688 L 73.851562 93.179688 Z M 74.988281 86.257812 L 75.058594 85.832031 L 70.414062 85.832031 L 70.320312 86.257812 L 69.75 88.886719 L 74.554688 88.886719 Z M 75.414062 83.671875 L 75.5 83.164062 L 75.582031 82.65625 L 71.101562 82.65625 L 70.882812 83.671875 L 70.769531 84.179688 L 70.578125 85.070312 L 75.183594 85.070312 L 75.328125 84.179688 Z M 67.875 93.945312 L 63.167969 93.945312 L 62.3125 97.425781 L 67.121094 97.425781 Z M 68.804688 89.652344 L 64.222656 89.652344 L 63.355469 93.179688 L 68.039062 93.179688 Z M 69.539062 86.257812 L 69.632812 85.832031 L 65.160156 85.832031 L 65.058594 86.257812 L 64.410156 88.886719 L 68.972656 88.886719 Z M 70.101562 83.671875 L 70.320312 82.65625 L 65.941406 82.65625 L 65.816406 83.15625 L 65.574219 84.15625 L 65.347656 85.070312 L 69.796875 85.070312 L 69.992188 84.179688 Z M 57.308594 93.945312 L 56.3125 97.425781 L 61.527344 97.425781 L 62.382812 93.945312 Z M 63.4375 89.652344 L 58.53125 89.652344 L 57.523438 93.179688 L 62.570312 93.179688 Z M 64.273438 86.257812 L 64.375 85.832031 L 59.621094 85.832031 L 59.5 86.257812 L 58.75 88.886719 L 63.625 88.886719 Z M 64.828125 83.988281 L 64.953125 83.492188 L 65.074219 82.996094 L 65.15625 82.65625 L 60.527344 82.65625 L 59.839844 85.070312 L 64.566406 85.070312 Z M 56.511719 93.945312 L 51.609375 93.945312 L 50.339844 97.425781 L 55.519531 97.425781 Z M 57.738281 89.652344 L 53.171875 89.652344 L 51.886719 93.179688 L 56.730469 93.179688 Z M 54.558594 85.832031 L 54.40625 86.257812 L 53.449219 88.886719 L 57.957031 88.886719 L 58.703125 86.257812 L 58.828125 85.832031 Z M 59.734375 82.65625 L 55.714844 82.65625 L 54.835938 85.070312 L 59.042969 85.070312 Z M 50.796875 93.945312 L 45.164062 93.945312 L 44.457031 95.445312 C 44.296875 95.785156 44.199219 96.132812 44.199219 96.449219 C 44.199219 96.628906 44.234375 96.792969 44.308594 96.925781 C 44.386719 97.058594 44.507812 97.167969 44.6875 97.253906 C 44.921875 97.363281 45.25 97.425781 45.6875 97.425781 L 49.527344 97.425781 Z M 49.046875 85.832031 C 49.027344 85.832031 49.003906 85.832031 48.984375 85.828125 L 48.78125 86.257812 L 47.542969 88.886719 L 52.636719 88.886719 L 53.59375 86.257812 L 53.75 85.832031 Z M 136.171875 93.179688 L 141.679688 93.179688 L 140.019531 89.652344 L 134.890625 89.652344 Z M 47.183594 89.652344 L 45.523438 93.179688 L 51.074219 93.179688 L 52.359375 89.652344 Z M 62.429688 77.996094 L 62.429688 71.386719 L 58.542969 71.386719 C 56.722656 71.386719 55.066406 70.640625 53.867188 69.445312 C 52.667969 68.246094 51.921875 66.59375 51.921875 64.773438 L 51.921875 6.613281 C 51.921875 4.792969 52.667969 3.140625 53.867188 1.941406 C 55.066406 0.746094 56.722656 0 58.542969 0 L 128.648438 0 C 130.472656 0 132.128906 0.746094 133.328125 1.941406 C 134.527344 3.140625 135.273438 4.792969 135.273438 6.613281 L 135.273438 64.773438 C 135.273438 66.59375 134.527344 68.246094 133.328125 69.441406 C 132.128906 70.640625 130.472656 71.382812 128.648438 71.382812 L 124.761719 71.382812 L 124.761719 77.996094 L 139.882812 77.996094 C 140.847656 77.996094 141.191406 78.671875 141.558594 79.386719 L 153.898438 102.675781 C 154.023438 102.914062 154.082031 103.160156 154.082031 103.390625 C 154.082031 103.523438 154.0625 103.652344 154.027344 103.773438 L 153.953125 110.164062 C 153.949219 110.667969 153.742188 111.128906 153.410156 111.460938 C 153.074219 111.796875 152.617188 112.003906 152.109375 112.003906 L 35.085938 112.003906 C 34.578125 112.003906 34.121094 111.796875 33.789062 111.464844 C 33.453125 111.128906 33.246094 110.671875 33.238281 110.164062 L 33.148438 103.625 C 33.132812 103.539062 33.121094 103.449219 33.121094 103.355469 C 33.121094 103.132812 33.179688 102.902344 33.296875 102.675781 L 45.636719 79.390625 C 46.003906 78.671875 46.347656 77.996094 47.308594 77.996094 Z M 34.253906 110.152344 C 34.257812 110.382812 34.351562 110.59375 34.503906 110.746094 C 34.652344 110.894531 34.859375 110.984375 35.085938 110.984375 L 152.109375 110.984375 C 152.335938 110.984375 152.542969 110.894531 152.691406 110.746094 C 152.84375 110.59375 152.9375 110.382812 152.941406 110.15625 L 153.003906 104.71875 C 152.894531 104.746094 152.78125 104.757812 152.660156 104.757812 L 34.605469 104.757812 C 34.457031 104.757812 34.3125 104.738281 34.179688 104.699219 Z M 123.746094 77.996094 L 123.746094 71.386719 L 63.449219 71.386719 L 63.449219 77.996094 Z M 123.746094 70.367188 L 58.542969 70.367188 C 57.003906 70.367188 55.601562 69.738281 54.585938 68.722656 C 53.570312 67.710938 52.941406 66.3125 52.941406 64.773438 L 52.941406 6.613281 C 52.941406 5.074219 53.570312 3.675781 54.585938 2.660156 C 55.601562 1.648438 57.003906 1.015625 58.542969 1.015625 L 128.648438 1.015625 C 130.191406 1.015625 131.589844 1.648438 132.609375 2.660156 C 133.625 3.675781 134.253906 5.074219 134.253906 6.613281 L 134.253906 64.773438 C 134.253906 66.3125 133.625 67.710938 132.609375 68.722656 C 131.59375 69.738281 130.191406 70.367188 128.648438 70.367188 Z M 59.082031 60.1875 C 59.507812 60.613281 60.09375 60.875 60.742188 60.875 L 126.453125 60.875 C 127.101562 60.875 127.6875 60.613281 128.113281 60.1875 C 128.539062 59.761719 128.804688 59.175781 128.804688 58.53125 L 128.804688 8.449219 C 128.804688 7.800781 128.539062 7.214844 128.113281 6.792969 C 127.6875 6.367188 127.101562 6.105469 126.453125 6.105469 L 60.742188 6.105469 C 60.097656 6.105469 59.507812 6.367188 59.082031 6.792969 C 58.65625 7.21875 58.390625 7.804688 58.390625 8.449219 L 58.390625 58.53125 C 58.390625 59.175781 58.65625 59.761719 59.082031 60.1875 Z M 60.742188 59.859375 L 126.453125 59.859375 C 126.820312 59.859375 127.152344 59.710938 127.394531 59.46875 C 127.636719 59.226562 127.785156 58.894531 127.785156 58.53125 L 127.785156 8.449219 C 127.785156 8.082031 127.636719 7.75 127.394531 7.511719 C 127.152344 7.269531 126.820312 7.121094 126.453125 7.121094 L 60.742188 7.121094 C 60.375 7.121094 60.042969 7.269531 59.800781 7.507812 C 59.5625 7.75 59.410156 8.082031 59.410156 8.445312 L 59.410156 58.53125 C 59.410156 58.894531 59.5625 59.230469 59.800781 59.46875 C 60.042969 59.710938 60.375 59.859375 60.742188 59.859375 Z M 122.707031 63.75 Z M 117.890625 65.738281 C 117.890625 66.515625 118.207031 67.21875 118.71875 67.730469 C 119.230469 68.238281 119.933594 68.554688 120.710938 68.554688 C 121.488281 68.554688 122.195312 68.238281 122.703125 67.730469 L 122.707031 67.726562 C 123.21875 67.214844 123.53125 66.511719 123.53125 65.738281 C 123.53125 64.960938 123.21875 64.257812 122.703125 63.746094 C 122.195312 63.238281 121.488281 62.921875 120.710938 62.921875 C 119.9375 62.921875 119.230469 63.238281 118.722656 63.746094 L 118.71875 63.75 C 118.207031 64.257812 117.890625 64.964844 117.890625 65.738281 Z M 119.4375 64.464844 Z M 121.988281 67.007812 Z M 119.4375 67.007812 C 119.765625 67.335938 120.214844 67.535156 120.710938 67.535156 C 121.210938 67.535156 121.660156 67.335938 121.988281 67.011719 C 122.3125 66.683594 122.515625 66.234375 122.515625 65.738281 C 122.515625 65.238281 122.3125 64.789062 121.988281 64.464844 C 121.660156 64.140625 121.210938 63.9375 120.710938 63.9375 C 120.214844 63.9375 119.761719 64.140625 119.4375 64.464844 C 119.113281 64.789062 118.910156 65.238281 118.910156 65.738281 C 118.910156 66.234375 119.113281 66.683594 119.4375 67.007812 Z M 114.410156 64.8125 C 113.898438 64.8125 113.484375 65.226562 113.484375 65.738281 C 113.484375 66.25 113.898438 66.660156 114.410156 66.660156 C 114.921875 66.660156 115.335938 66.25 115.335938 65.738281 C 115.335938 65.226562 114.921875 64.8125 114.410156 64.8125 Z M 114.410156 64.8125 " fill-opacity="1" fill-rule="evenodd"/></g><g fill="#000000" fill-opacity="1"><g transform="translate(69.248101, 27.114068)"><g><path d="M 10.21875 -1.578125 L 10.21875 -2.96875 L 11.59375 -2.96875 L 11.59375 -1.578125 Z M 10.21875 -3.15625 L 10.21875 -4.546875 L 11.59375 -4.546875 L 11.59375 -3.15625 Z M 10.21875 -4.734375 L 10.21875 -6.125 L 11.59375 -6.125 L 11.59375 -4.734375 Z M 10.21875 -6.296875 L 10.21875 -7.6875 L 11.59375 -7.6875 L 11.59375 -6.296875 Z M 10.21875 -7.875 L 10.21875 -9.265625 L 11.59375 -9.265625 L 11.59375 -7.875 Z M 10.21875 -9.453125 L 10.21875 -10.84375 L 11.59375 -10.84375 L 11.59375 -9.453125 Z M 8.65625 0 L 8.65625 -1.390625 L 10.03125 -1.390625 L 10.03125 0 Z M 8.65625 -1.578125 L 8.65625 -2.96875 L 10.03125 -2.96875 L 10.03125 -1.578125 Z M 8.65625 -3.15625 L 8.65625 -4.546875 L 10.03125 -4.546875 L 10.03125 -3.15625 Z M 8.65625 -4.734375 L 8.65625 -6.125 L 10.03125 -6.125 L 10.03125 -4.734375 Z M 8.65625 -6.296875 L 8.65625 -7.6875 L 10.03125 -7.6875 L 10.03125 -6.296875 Z M 8.65625 -7.875 L 8.65625 -9.265625 L 10.03125 -9.265625 L 10.03125 -7.875 Z M 8.65625 -9.453125 L 8.65625 -10.84375 L 10.03125 -10.84375 L 10.03125 -9.453125 Z M 8.65625 -11.046875 L 8.65625 -12.421875 L 10.03125 -12.421875 L 10.03125 -11.046875 Z M 7.125 0 L 7.125 -1.390625 L 8.484375 -1.390625 L 8.484375 0 Z M 7.125 -4.734375 L 7.125 -6.125 L 8.484375 -6.125 L 8.484375 -4.734375 Z M 7.125 -6.296875 L 7.125 -7.6875 L 8.484375 -7.6875 L 8.484375 -6.296875 Z M 7.125 -11.046875 L 7.125 -12.421875 L 8.484375 -12.421875 L 8.484375 -11.046875 Z M 5.5625 0 L 5.5625 -1.390625 L 6.921875 -1.390625 L 6.921875 0 Z M 5.5625 -4.734375 L 5.5625 -6.125 L 6.921875 -6.125 L 6.921875 -4.734375 Z M 5.5625 -6.296875 L 5.5625 -7.6875 L 6.921875 -7.6875 L 6.921875 -6.296875 Z M 5.5625 -11.046875 L 5.5625 -12.421875 L 6.921875 -12.421875 L 6.921875 -11.046875 Z M 4 0 L 4 -1.390625 L 5.359375 -1.390625 L 5.359375 0 Z M 4 -1.578125 L 4 -2.96875 L 5.359375 -2.96875 L 5.359375 -1.578125 Z M 4 -3.15625 L 4 -4.546875 L 5.359375 -4.546875 L 5.359375 -3.15625 Z M 4 -4.734375 L 4 -6.125 L 5.359375 -6.125 L 5.359375 -4.734375 Z M 4 -6.296875 L 4 -7.6875 L 5.359375 -7.6875 L 5.359375 -6.296875 Z M 4 -7.875 L 4 -9.265625 L 5.359375 -9.265625 L 5.359375 -7.875 Z M 4 -9.453125 L 4 -10.84375 L 5.359375 -10.84375 L 5.359375 -9.453125 Z M 4 -11.046875 L 4 -12.421875 L 5.359375 -12.421875 L 5.359375 -11.046875 Z M 2.453125 0 L 2.453125 -1.390625 L 3.8125 -1.390625 L 3.8125 0 Z M 2.453125 -1.578125 L 2.453125 -2.96875 L 3.8125 -2.96875 L 3.8125 -1.578125 Z M 2.453125 -3.15625 L 2.453125 -4.546875 L 3.8125 -4.546875 L 3.8125 -3.15625 Z M 2.453125 -4.734375 L 2.453125 -6.125 L 3.8125 -6.125 L 3.8125 -4.734375 Z M 2.453125 -6.296875 L 2.453125 -7.6875 L 3.8125 -7.6875 L 3.8125 -6.296875 Z M 2.453125 -7.875 L 2.453125 -9.265625 L 3.8125 -9.265625 L 3.8125 -7.875 Z M 2.453125 -9.453125 L 2.453125 -10.84375 L 3.8125 -10.84375 L 3.8125 -9.453125 Z M 2.453125 -11.046875 L 2.453125 -12.421875 L 3.8125 -12.421875 L 3.8125 -11.046875 Z M 0.890625 0 L 0.890625 -1.390625 L 2.25 -1.390625 L 2.25 0 Z M 0.890625 -11.046875 L 0.890625 -12.421875 L 2.25 -12.421875 L 2.25 -11.046875 Z M 0.890625 -11.046875 "/></g></g></g><g fill="#000000" fill-opacity="1"><g transform="translate(82.350308, 27.114068)"><g><path d="M 9.1875 -1.578125 L 9.1875 -2.96875 L 10.5625 -2.96875 L 10.5625 -1.578125 Z M 9.1875 -3.15625 L 9.1875 -4.546875 L 10.5625 -4.546875 L 10.5625 -3.15625 Z M 9.1875 -4.734375 L 9.1875 -6.125 L 10.5625 -6.125 L 10.5625 -4.734375 Z M 9.1875 -6.296875 L 9.1875 -7.6875 L 10.5625 -7.6875 L 10.5625 -6.296875 Z M 9.1875 -7.875 L 9.1875 -9.265625 L 10.5625 -9.265625 L 10.5625 -7.875 Z M 9.1875 -9.453125 L 9.1875 -10.84375 L 10.5625 -10.84375 L 10.5625 -9.453125 Z M 7.65625 0 L 7.65625 -1.390625 L 9.015625 -1.390625 L 9.015625 0 Z M 7.65625 -1.578125 L 7.65625 -2.96875 L 9.015625 -2.96875 L 9.015625 -1.578125 Z M 7.65625 -3.15625 L 7.65625 -4.546875 L 9.015625 -4.546875 L 9.015625 -3.15625 Z M 7.65625 -4.734375 L 7.65625 -6.125 L 9.015625 -6.125 L 9.015625 -4.734375 Z M 7.65625 -6.296875 L 7.65625 -7.6875 L 9.015625 -7.6875 L 9.015625 -6.296875 Z M 7.65625 -7.875 L 7.65625 -9.265625 L 9.015625 -9.265625 L 9.015625 -7.875 Z M 7.65625 -9.453125 L 7.65625 -10.84375 L 9.015625 -10.84375 L 9.015625 -9.453125 Z M 7.65625 -11.046875 L 7.65625 -12.421875 L 9.015625 -12.421875 L 9.015625 -11.046875 Z M 6.09375 0 L 6.09375 -1.390625 L 7.453125 -1.390625 L 7.453125 0 Z M 6.09375 -1.578125 L 6.09375 -2.96875 L 7.453125 -2.96875 L 7.453125 -1.578125 Z M 6.09375 -9.453125 L 6.09375 -10.84375 L 7.453125 -10.84375 L 7.453125 -9.453125 Z M 6.09375 -11.046875 L 6.09375 -12.421875 L 7.453125 -12.421875 L 7.453125 -11.046875 Z M 4.53125 0 L 4.53125 -1.390625 L 5.890625 -1.390625 L 5.890625 0 Z M 4.53125 -1.578125 L 4.53125 -2.96875 L 5.890625 -2.96875 L 5.890625 -1.578125 Z M 4.53125 -9.453125 L 4.53125 -10.84375 L 5.890625 -10.84375 L 5.890625 -9.453125 Z M 4.53125 -11.046875 L 4.53125 -12.421875 L 5.890625 -12.421875 L 5.890625 -11.046875 Z M 2.984375 0 L 2.984375 -1.390625 L 4.34375 -1.390625 L 4.34375 0 Z M 2.984375 -1.578125 L 2.984375 -2.96875 L 4.34375 -2.96875 L 4.34375 -1.578125 Z M 2.984375 -3.15625 L 2.984375 -4.546875 L 4.34375 -4.546875 L 4.34375 -3.15625 Z M 2.984375 -4.734375 L 2.984375 -6.125 L 4.34375 -6.125 L 4.34375 -4.734375 Z M 2.984375 -6.296875 L 2.984375 -7.6875 L 4.34375 -7.6875 L 4.34375 -6.296875 Z M 2.984375 -7.875 L 2.984375 -9.265625 L 4.34375 -9.265625 L 4.34375 -7.875 Z M 2.984375 -9.453125 L 2.984375 -10.84375 L 4.34375 -10.84375 L 4.34375 -9.453125 Z M 2.984375 -11.046875 L 2.984375 -12.421875 L 4.34375 -12.421875 L 4.34375 -11.046875 Z M 1.421875 -1.578125 L 1.421875 -2.96875 L 2.78125 -2.96875 L 2.78125 -1.578125 Z M 1.421875 -3.15625 L 1.421875 -4.546875 L 2.78125 -4.546875 L 2.78125 -3.15625 Z M 1.421875 -4.734375 L 1.421875 -6.125 L 2.78125 -6.125 L 2.78125 -4.734375 Z M 1.421875 -6.296875 L 1.421875 -7.6875 L 2.78125 -7.6875 L 2.78125 -6.296875 Z M 1.421875 -7.875 L 1.421875 -9.265625 L 2.78125 -9.265625 L 2.78125 -7.875 Z M 1.421875 -9.453125 L 1.421875 -10.84375 L 2.78125 -10.84375 L 2.78125 -9.453125 Z M 1.421875 -9.453125 "/></g></g></g><g fill="#000000" fill-opacity="1"><g transform="translate(94.280772, 27.114068)"><g><path d="M 7.578125 0 L 7.578125 -1.390625 L 8.953125 -1.390625 L 8.953125 0 Z M 7.578125 -1.578125 L 7.578125 -2.96875 L 8.953125 -2.96875 L 8.953125 -1.578125 Z M 9.09375 0 L 9.09375 -1.390625 L 10.453125 -1.390625 L 10.453125 0 Z M 9.09375 -1.578125 L 9.09375 -2.96875 L 10.453125 -2.96875 L 10.453125 -1.578125 Z M 6.015625 0 L 6.015625 -1.390625 L 7.390625 -1.390625 L 7.390625 0 Z M 6.015625 -1.578125 L 6.015625 -2.96875 L 7.390625 -2.96875 L 7.390625 -1.578125 Z M 4.453125 0 L 4.453125 -1.390625 L 5.828125 -1.390625 L 5.828125 0 Z M 4.453125 -1.578125 L 4.453125 -2.96875 L 5.828125 -2.96875 L 5.828125 -1.578125 Z M 2.90625 0 L 2.90625 -1.390625 L 4.28125 -1.390625 L 4.28125 0 Z M 2.90625 -1.578125 L 2.90625 -2.96875 L 4.28125 -2.96875 L 4.28125 -1.578125 Z M 2.90625 -3.15625 L 2.90625 -4.546875 L 4.28125 -4.546875 L 4.28125 -3.15625 Z M 2.90625 -4.734375 L 2.90625 -6.125 L 4.28125 -6.125 L 4.28125 -4.734375 Z M 2.90625 -6.296875 L 2.90625 -7.6875 L 4.28125 -7.6875 L 4.28125 -6.296875 Z M 2.90625 -7.875 L 2.90625 -9.265625 L 4.28125 -9.265625 L 4.28125 -7.875 Z M 2.90625 -9.453125 L 2.90625 -10.84375 L 4.28125 -10.84375 L 4.28125 -9.453125 Z M 2.90625 -11.046875 L 2.90625 -12.421875 L 4.28125 -12.421875 L 4.28125 -11.046875 Z M 1.34375 0 L 1.34375 -1.390625 L 2.71875 -1.390625 L 2.71875 0 Z M 1.34375 -1.578125 L 1.34375 -2.96875 L 2.71875 -2.96875 L 2.71875 -1.578125 Z M 1.34375 -3.15625 L 1.34375 -4.546875 L 2.71875 -4.546875 L 2.71875 -3.15625 Z M 1.34375 -4.734375 L 1.34375 -6.125 L 2.71875 -6.125 L 2.71875 -4.734375 Z M 1.34375 -6.296875 L 1.34375 -7.6875 L 2.71875 -7.6875 L 2.71875 -6.296875 Z M 1.34375 -7.875 L 1.34375 -9.265625 L 2.71875 -9.265625 L 2.71875 -7.875 Z M 1.34375 -9.453125 L 1.34375 -10.84375 L 2.71875 -10.84375 L 2.71875 -9.453125 Z M 1.34375 -11.046875 L 1.34375 -12.421875 L 2.71875 -12.421875 L 2.71875 -11.046875 Z M 1.34375 -11.046875 "/></g></g></g><g fill="#000000" fill-opacity="1"><g transform="translate(105.873916, 27.114068)"><g><path d="M 9.1875 -9.453125 L 9.1875 -10.84375 L 10.5625 -10.84375 L 10.5625 -9.453125 Z M 9.1875 -11.046875 L 9.1875 -12.421875 L 10.5625 -12.421875 L 10.5625 -11.046875 Z M 7.65625 -9.453125 L 7.65625 -10.84375 L 9.015625 -10.84375 L 9.015625 -9.453125 Z M 7.65625 -11.046875 L 7.65625 -12.421875 L 9.015625 -12.421875 L 9.015625 -11.046875 Z M 6.09375 0 L 6.09375 -1.390625 L 7.453125 -1.390625 L 7.453125 0 Z M 6.09375 -1.578125 L 6.09375 -2.96875 L 7.453125 -2.96875 L 7.453125 -1.578125 Z M 6.09375 -3.15625 L 6.09375 -4.546875 L 7.453125 -4.546875 L 7.453125 -3.15625 Z M 6.09375 -4.734375 L 6.09375 -6.125 L 7.453125 -6.125 L 7.453125 -4.734375 Z M 6.09375 -6.296875 L 6.09375 -7.6875 L 7.453125 -7.6875 L 7.453125 -6.296875 Z M 6.09375 -7.875 L 6.09375 -9.265625 L 7.453125 -9.265625 L 7.453125 -7.875 Z M 6.09375 -9.453125 L 6.09375 -10.84375 L 7.453125 -10.84375 L 7.453125 -9.453125 Z M 6.09375 -11.046875 L 6.09375 -12.421875 L 7.453125 -12.421875 L 7.453125 -11.046875 Z M 4.53125 0 L 4.53125 -1.390625 L 5.890625 -1.390625 L 5.890625 0 Z M 4.53125 -1.578125 L 4.53125 -2.96875 L 5.890625 -2.96875 L 5.890625 -1.578125 Z M 4.53125 -3.15625 L 4.53125 -4.546875 L 5.890625 -4.546875 L 5.890625 -3.15625 Z M 4.53125 -4.734375 L 4.53125 -6.125 L 5.890625 -6.125 L 5.890625 -4.734375 Z M 4.53125 -6.296875 L 4.53125 -7.6875 L 5.890625 -7.6875 L 5.890625 -6.296875 Z M 4.53125 -7.875 L 4.53125 -9.265625 L 5.890625 -9.265625 L 5.890625 -7.875 Z M 4.53125 -9.453125 L 4.53125 -10.84375 L 5.890625 -10.84375 L 5.890625 -9.453125 Z M 4.53125 -11.046875 L 4.53125 -12.421875 L 5.890625 -12.421875 L 5.890625 -11.046875 Z M 2.984375 -9.453125 L 2.984375 -10.84375 L 4.34375 -10.84375 L 4.34375 -9.453125 Z M 2.984375 -11.046875 L 2.984375 -12.421875 L 4.34375 -12.421875 L 4.34375 -11.046875 Z M 1.421875 -9.453125 L 1.421875 -10.84375 L 2.78125 -10.84375 L 2.78125 -9.453125 Z M 1.421875 -11.046875 L 1.421875 -12.421875 L 2.78125 -12.421875 L 2.78125 -11.046875 Z M 1.421875 -11.046875 "/></g></g></g><g fill="#000000" fill-opacity="1"><g transform="translate(73.305433, 51.865148)"><g><path d="M 10.5625 0 L 10.5625 -1.390625 L 11.921875 -1.390625 L 11.921875 0 Z M 10.5625 -1.578125 L 10.5625 -2.96875 L 11.921875 -2.96875 L 11.921875 -1.578125 Z M 10.5625 -3.15625 L 10.5625 -4.546875 L 11.921875 -4.546875 L 11.921875 -3.15625 Z M 10.5625 -4.734375 L 10.5625 -6.125 L 11.921875 -6.125 L 11.921875 -4.734375 Z M 10.5625 -6.296875 L 10.5625 -7.6875 L 11.921875 -7.6875 L 11.921875 -6.296875 Z M 10.5625 -7.875 L 10.5625 -9.265625 L 11.921875 -9.265625 L 11.921875 -7.875 Z M 10.5625 -9.453125 L 10.5625 -10.84375 L 11.921875 -10.84375 L 11.921875 -9.453125 Z M 10.5625 -11.046875 L 10.5625 -12.421875 L 11.921875 -12.421875 L 11.921875 -11.046875 Z M 9 0 L 9 -1.390625 L 10.359375 -1.390625 L 10.359375 0 Z M 9 -1.578125 L 9 -2.96875 L 10.359375 -2.96875 L 10.359375 -1.578125 Z M 9 -3.15625 L 9 -4.546875 L 10.359375 -4.546875 L 10.359375 -3.15625 Z M 9 -4.734375 L 9 -6.125 L 10.359375 -6.125 L 10.359375 -4.734375 Z M 9 -6.296875 L 9 -7.6875 L 10.359375 -7.6875 L 10.359375 -6.296875 Z M 9 -7.875 L 9 -9.265625 L 10.359375 -9.265625 L 10.359375 -7.875 Z M 9 -9.453125 L 9 -10.84375 L 10.359375 -10.84375 L 10.359375 -9.453125 Z M 9 -11.046875 L 9 -12.421875 L 10.359375 -12.421875 L 10.359375 -11.046875 Z M 7.453125 -3.15625 L 7.453125 -4.546875 L 8.828125 -4.546875 L 8.828125 -3.15625 Z M 7.453125 -4.734375 L 7.453125 -6.125 L 8.828125 -6.125 L 8.828125 -4.734375 Z M 5.890625 -4.734375 L 5.890625 -6.125 L 7.265625 -6.125 L 7.265625 -4.734375 Z M 5.890625 -6.296875 L 5.890625 -7.6875 L 7.265625 -7.6875 L 7.265625 -6.296875 Z M 4.328125 -6.296875 L 4.328125 -7.6875 L 5.703125 -7.6875 L 5.703125 -6.296875 Z M 4.328125 -7.875 L 4.328125 -9.265625 L 5.703125 -9.265625 L 5.703125 -7.875 Z M 2.78125 0 L 2.78125 -1.390625 L 4.15625 -1.390625 L 4.15625 0 Z M 2.78125 -1.578125 L 2.78125 -2.96875 L 4.15625 -2.96875 L 4.15625 -1.578125 Z M 2.78125 -3.15625 L 2.78125 -4.546875 L 4.15625 -4.546875 L 4.15625 -3.15625 Z M 2.78125 -4.734375 L 2.78125 -6.125 L 4.15625 -6.125 L 4.15625 -4.734375 Z M 2.78125 -6.296875 L 2.78125 -7.6875 L 4.15625 -7.6875 L 4.15625 -6.296875 Z M 2.78125 -7.875 L 2.78125 -9.265625 L 4.15625 -9.265625 L 4.15625 -7.875 Z M 2.78125 -9.453125 L 2.78125 -10.84375 L 4.15625 -10.84375 L 4.15625 -9.453125 Z M 2.78125 -11.046875 L 2.78125 -12.421875 L 4.15625 -12.421875 L 4.15625 -11.046875 Z M 1.21875 0 L 1.21875 -1.390625 L 2.59375 -1.390625 L 2.59375 0 Z M 1.21875 -1.578125 L 1.21875 -2.96875 L 2.59375 -2.96875 L 2.59375 -1.578125 Z M 1.21875 -3.15625 L 1.21875 -4.546875 L 2.59375 -4.546875 L 2.59375 -3.15625 Z M 1.21875 -4.734375 L 1.21875 -6.125 L 2.59375 -6.125 L 2.59375 -4.734375 Z M 1.21875 -6.296875 L 1.21875 -7.6875 L 2.59375 -7.6875 L 2.59375 -6.296875 Z M 1.21875 -7.875 L 1.21875 -9.265625 L 2.59375 -9.265625 L 2.59375 -7.875 Z M 1.21875 -9.453125 L 1.21875 -10.84375 L 2.59375 -10.84375 L 2.59375 -9.453125 Z M 1.21875 -11.046875 L 1.21875 -12.421875 L 2.59375 -12.421875 L 2.59375 -11.046875 Z M 1.21875 -11.046875 "/></g></g></g><g fill="#000000" fill-opacity="1"><g transform="translate(86.602929, 51.865148)"><g><path d="M 7.65625 0 L 7.65625 -1.390625 L 9.015625 -1.390625 L 9.015625 0 Z M 7.65625 -1.578125 L 7.65625 -2.96875 L 9.015625 -2.96875 L 9.015625 -1.578125 Z M 7.65625 -4.734375 L 7.65625 -6.125 L 9.015625 -6.125 L 9.015625 -4.734375 Z M 7.65625 -6.296875 L 7.65625 -7.6875 L 9.015625 -7.6875 L 9.015625 -6.296875 Z M 7.65625 -9.453125 L 7.65625 -10.84375 L 9.015625 -10.84375 L 9.015625 -9.453125 Z M 7.65625 -11.046875 L 7.65625 -12.421875 L 9.015625 -12.421875 L 9.015625 -11.046875 Z M 9.1875 0 L 9.1875 -1.390625 L 10.5625 -1.390625 L 10.5625 0 Z M 9.1875 -1.578125 L 9.1875 -2.96875 L 10.5625 -2.96875 L 10.5625 -1.578125 Z M 9.1875 -4.734375 L 9.1875 -6.125 L 10.5625 -6.125 L 10.5625 -4.734375 Z M 9.1875 -6.296875 L 9.1875 -7.6875 L 10.5625 -7.6875 L 10.5625 -6.296875 Z M 9.1875 -9.453125 L 9.1875 -10.84375 L 10.5625 -10.84375 L 10.5625 -9.453125 Z M 9.1875 -11.046875 L 9.1875 -12.421875 L 10.5625 -12.421875 L 10.5625 -11.046875 Z M 6.09375 0 L 6.09375 -1.390625 L 7.453125 -1.390625 L 7.453125 0 Z M 6.09375 -1.578125 L 6.09375 -2.96875 L 7.453125 -2.96875 L 7.453125 -1.578125 Z M 6.09375 -4.734375 L 6.09375 -6.125 L 7.453125 -6.125 L 7.453125 -4.734375 Z M 6.09375 -6.296875 L 6.09375 -7.6875 L 7.453125 -7.6875 L 7.453125 -6.296875 Z M 6.09375 -9.453125 L 6.09375 -10.84375 L 7.453125 -10.84375 L 7.453125 -9.453125 Z M 6.09375 -11.046875 L 6.09375 -12.421875 L 7.453125 -12.421875 L 7.453125 -11.046875 Z M 4.53125 0 L 4.53125 -1.390625 L 5.890625 -1.390625 L 5.890625 0 Z M 4.53125 -1.578125 L 4.53125 -2.96875 L 5.890625 -2.96875 L 5.890625 -1.578125 Z M 4.53125 -4.734375 L 4.53125 -6.125 L 5.890625 -6.125 L 5.890625 -4.734375 Z M 4.53125 -6.296875 L 4.53125 -7.6875 L 5.890625 -7.6875 L 5.890625 -6.296875 Z M 4.53125 -9.453125 L 4.53125 -10.84375 L 5.890625 -10.84375 L 5.890625 -9.453125 Z M 4.53125 -11.046875 L 4.53125 -12.421875 L 5.890625 -12.421875 L 5.890625 -11.046875 Z M 2.984375 0 L 2.984375 -1.390625 L 4.34375 -1.390625 L 4.34375 0 Z M 2.984375 -1.578125 L 2.984375 -2.96875 L 4.34375 -2.96875 L 4.34375 -1.578125 Z M 2.984375 -3.15625 L 2.984375 -4.546875 L 4.34375 -4.546875 L 4.34375 -3.15625 Z M 2.984375 -4.734375 L 2.984375 -6.125 L 4.34375 -6.125 L 4.34375 -4.734375 Z M 2.984375 -6.296875 L 2.984375 -7.6875 L 4.34375 -7.6875 L 4.34375 -6.296875 Z M 2.984375 -7.875 L 2.984375 -9.265625 L 4.34375 -9.265625 L 4.34375 -7.875 Z M 2.984375 -9.453125 L 2.984375 -10.84375 L 4.34375 -10.84375 L 4.34375 -9.453125 Z M 2.984375 -11.046875 L 2.984375 -12.421875 L 4.34375 -12.421875 L 4.34375 -11.046875 Z M 1.421875 -1.578125 L 1.421875 -2.96875 L 2.78125 -2.96875 L 2.78125 -1.578125 Z M 1.421875 -3.15625 L 1.421875 -4.546875 L 2.78125 -4.546875 L 2.78125 -3.15625 Z M 1.421875 -4.734375 L 1.421875 -6.125 L 2.78125 -6.125 L 2.78125 -4.734375 Z M 1.421875 -6.296875 L 1.421875 -7.6875 L 2.78125 -7.6875 L 2.78125 -6.296875 Z M 1.421875 -7.875 L 1.421875 -9.265625 L 2.78125 -9.265625 L 2.78125 -7.875 Z M 1.421875 -9.453125 L 1.421875 -10.84375 L 2.78125 -10.84375 L 2.78125 -9.453125 Z M 1.421875 -9.453125 "/></g></g></g><g fill="#000000" fill-opacity="1"><g transform="translate(98.462378, 51.865148)"><g><path d="M 12.25 -11.046875 L 12.25 -12.421875 L 13.609375 -12.421875 L 13.609375 -11.046875 Z M 12.25 -9.453125 L 12.25 -10.84375 L 13.609375 -10.84375 L 13.609375 -9.453125 Z M 12.25 -7.875 L 12.25 -9.265625 L 13.609375 -9.265625 L 13.609375 -7.875 Z M 12.25 -6.296875 L 12.25 -7.6875 L 13.609375 -7.6875 L 13.609375 -6.296875 Z M 12.25 -4.734375 L 12.25 -6.125 L 13.609375 -6.125 L 13.609375 -4.734375 Z M 12.25 -3.15625 L 12.25 -4.546875 L 13.609375 -4.546875 L 13.609375 -3.15625 Z M 12.25 -1.578125 L 12.25 -2.96875 L 13.609375 -2.96875 L 13.609375 -1.578125 Z M 12.25 0 L 12.25 -1.390625 L 13.609375 -1.390625 L 13.609375 0 Z M 10.6875 -11.046875 L 10.6875 -12.421875 L 12.046875 -12.421875 L 12.046875 -11.046875 Z M 10.6875 -9.453125 L 10.6875 -10.84375 L 12.046875 -10.84375 L 12.046875 -9.453125 Z M 10.6875 -7.875 L 10.6875 -9.265625 L 12.046875 -9.265625 L 12.046875 -7.875 Z M 10.6875 -6.296875 L 10.6875 -7.6875 L 12.046875 -7.6875 L 12.046875 -6.296875 Z M 10.6875 -4.734375 L 10.6875 -6.125 L 12.046875 -6.125 L 12.046875 -4.734375 Z M 10.6875 -3.15625 L 10.6875 -4.546875 L 12.046875 -4.546875 L 12.046875 -3.15625 Z M 10.6875 -1.578125 L 10.6875 -2.96875 L 12.046875 -2.96875 L 12.046875 -1.578125 Z M 10.6875 0 L 10.6875 -1.390625 L 12.046875 -1.390625 L 12.046875 0 Z M 9.125 -3.15625 L 9.125 -4.546875 L 10.484375 -4.546875 L 10.484375 -3.15625 Z M 9.125 -1.578125 L 9.125 -2.96875 L 10.484375 -2.96875 L 10.484375 -1.578125 Z M 7.578125 -4.734375 L 7.578125 -6.125 L 8.953125 -6.125 L 8.953125 -4.734375 Z M 7.578125 -3.15625 L 7.578125 -4.546875 L 8.953125 -4.546875 L 8.953125 -3.15625 Z M 6.015625 -4.734375 L 6.015625 -6.125 L 7.390625 -6.125 L 7.390625 -4.734375 Z M 6.015625 -3.15625 L 6.015625 -4.546875 L 7.390625 -4.546875 L 7.390625 -3.15625 Z M 4.453125 -3.15625 L 4.453125 -4.546875 L 5.828125 -4.546875 L 5.828125 -3.15625 Z M 4.453125 -1.578125 L 4.453125 -2.96875 L 5.828125 -2.96875 L 5.828125 -1.578125 Z M 2.90625 -11.046875 L 2.90625 -12.421875 L 4.28125 -12.421875 L 4.28125 -11.046875 Z M 2.90625 -9.453125 L 2.90625 -10.84375 L 4.28125 -10.84375 L 4.28125 -9.453125 Z M 2.90625 -7.875 L 2.90625 -9.265625 L 4.28125 -9.265625 L 4.28125 -7.875 Z M 2.90625 -6.296875 L 2.90625 -7.6875 L 4.28125 -7.6875 L 4.28125 -6.296875 Z M 2.90625 -4.734375 L 2.90625 -6.125 L 4.28125 -6.125 L 4.28125 -4.734375 Z M 2.90625 -3.15625 L 2.90625 -4.546875 L 4.28125 -4.546875 L 4.28125 -3.15625 Z M 2.90625 -1.578125 L 2.90625 -2.96875 L 4.28125 -2.96875 L 4.28125 -1.578125 Z M 2.90625 0 L 2.90625 -1.390625 L 4.28125 -1.390625 L 4.28125 0 Z M 1.34375 -11.046875 L 1.34375 -12.421875 L 2.71875 -12.421875 L 2.71875 -11.046875 Z M 1.34375 -9.453125 L 1.34375 -10.84375 L 2.71875 -10.84375 L 2.71875 -9.453125 Z M 1.34375 -7.875 L 1.34375 -9.265625 L 2.71875 -9.265625 L 2.71875 -7.875 Z M 1.34375 -6.296875 L 1.34375 -7.6875 L 2.71875 -7.6875 L 2.71875 -6.296875 Z M 1.34375 -4.734375 L 1.34375 -6.125 L 2.71875 -6.125 L 2.71875 -4.734375 Z M 1.34375 -3.15625 L 1.34375 -4.546875 L 2.71875 -4.546875 L 2.71875 -3.15625 Z M 1.34375 -1.578125 L 1.34375 -2.96875 L 2.71875 -2.96875 L 2.71875 -1.578125 Z M 1.34375 0 L 1.34375 -1.390625 L 2.71875 -1.390625 L 2.71875 0 Z M 1.34375 0 "/></g></g></g></svg>