<svg xmlns="http://www.w3.org/2000/svg" xmlns:xlink="http://www.w3.org/1999/xlink" width="250" zoomAndPan="magnify" viewBox="0 0 187.5 112.499997" height="150" preserveAspectRatio="xMidYMid meet" version="1.0"><defs><clipPath id="afa868be42"><path d="M 152 13.339844 L 179.742188 13.339844 L 179.742188 98.460938 L 152 98.460938 Z M 152 13.339844 " clip-rule="nonzero"/></clipPath><clipPath id="28c60cf11c"><path d="M 4.273438 13.339844 L 32 13.339844 L 32 98.460938 L 4.273438 98.460938 Z M 4.273438 13.339844 " clip-rule="nonzero"/></clipPath><clipPath id="1922ef2f56"><path d="M 151 13.339844 L 179.742188 13.339844 L 179.742188 98.460938 L 151 98.460938 Z M 151 13.339844 " clip-rule="nonzero"/></clipPath><clipPath id="013eb46df4"><path d="M 4.273438 13.339844 L 33 13.339844 L 33 98.460938 L 4.273438 98.460938 Z M 4.273438 13.339844 " clip-rule="nonzero"/></clipPath></defs><g clip-path="url(#afa868be42)"><path fill="#2cb57f" d="M 179.332031 51.285156 L 179.332031 60.507812 L 176.253906 60.507812 C 173.804688 60.507812 172.265625 61.863281 172.265625 64.84375 L 172.265625 83.46875 C 172.265625 93.050781 167.011719 98.203125 156.769531 98.203125 L 152.238281 98.203125 L 152.238281 89.164062 L 154.140625 89.164062 C 158.765625 89.164062 160.9375 86.632812 160.9375 82.292969 L 160.9375 65.117188 C 160.9375 59.511719 162.570312 57.070312 166.195312 55.894531 C 162.570312 54.71875 160.9375 52.28125 160.9375 46.671875 L 160.9375 29.496094 C 160.9375 25.15625 158.765625 22.625 154.140625 22.625 L 152.238281 22.625 L 152.238281 13.585938 L 156.769531 13.585938 C 167.007812 13.585938 172.265625 18.738281 172.265625 28.320312 L 172.265625 46.945312 C 172.265625 49.929688 173.804688 51.285156 176.25 51.285156 Z M 179.332031 51.285156 " fill-opacity="1" fill-rule="nonzero"/></g><g clip-path="url(#28c60cf11c)"><path fill="#2cb57f" d="M 7.757812 51.285156 C 10.207031 51.285156 11.746094 49.929688 11.746094 46.945312 L 11.746094 28.320312 C 11.746094 18.738281 17.003906 13.585938 27.242188 13.585938 L 31.773438 13.585938 L 31.773438 22.625 L 29.871094 22.625 C 25.25 22.625 23.074219 25.15625 23.074219 29.496094 L 23.074219 46.675781 C 23.074219 52.28125 21.445312 54.71875 17.820312 55.894531 C 21.445312 57.070312 23.074219 59.511719 23.074219 65.117188 L 23.074219 82.292969 C 23.074219 86.632812 25.25 89.164062 29.871094 89.164062 L 31.773438 89.164062 L 31.773438 98.207031 L 27.242188 98.207031 C 17.003906 98.207031 11.746094 93.050781 11.746094 83.46875 L 11.746094 64.84375 C 11.746094 61.863281 10.207031 60.507812 7.761719 60.507812 L 4.679688 60.507812 L 4.679688 51.285156 Z M 7.757812 51.285156 " fill-opacity="1" fill-rule="nonzero"/></g><g clip-path="url(#1922ef2f56)"><path stroke-linecap="round" transform="matrix(0.246376, 0, 0, 0.245803, 4.433381, 13.339929)" fill="none" stroke-linejoin="round" d="M 709.885027 154.372341 L 709.885027 191.892818 L 697.391421 191.892818 C 687.450443 191.892818 681.20364 197.407264 681.20364 209.532687 L 681.20364 285.304664 C 681.20364 324.287184 659.878893 345.248434 618.307529 345.248434 L 599.915926 345.248434 L 599.915926 308.474869 L 607.637228 308.474869 C 626.409347 308.474869 635.224632 298.177 635.224632 280.52124 L 635.224632 210.645111 C 635.224632 187.840416 641.851951 177.908058 656.565234 173.124634 C 641.851951 168.34121 635.224632 158.424743 635.224632 135.604156 L 635.224632 65.728028 C 635.224632 48.072267 626.409347 37.774398 607.637228 37.774398 L 599.915926 37.774398 L 599.915926 1.000834 L 618.307529 1.000834 C 659.863038 1.000834 681.20364 21.962083 681.20364 60.944604 L 681.20364 136.716581 C 681.20364 148.857896 687.450443 154.372341 697.375566 154.372341 Z M 709.885027 154.372341 " stroke="#2d334a" stroke-width="2" stroke-opacity="1" stroke-miterlimit="4"/></g><g clip-path="url(#013eb46df4)"><path stroke-linecap="round" transform="matrix(0.246376, 0, 0, 0.245803, 4.433381, 13.339929)" fill="none" stroke-linejoin="round" d="M 13.493326 154.372341 C 23.434304 154.372341 29.681107 148.857896 29.681107 136.716581 L 29.681107 60.944604 C 29.681107 21.962083 51.021708 1.000834 92.577218 1.000834 L 110.968821 1.000834 L 110.968821 37.774398 L 103.247519 37.774398 C 84.491255 37.774398 75.660114 48.072267 75.660114 65.728028 L 75.660114 135.620048 C 75.660114 158.424743 69.04865 168.34121 54.335368 173.124634 C 69.04865 177.908058 75.660114 187.840416 75.660114 210.645111 L 75.660114 280.52124 C 75.660114 298.177 84.491255 308.474869 103.247519 308.474869 L 110.968821 308.474869 L 110.968821 345.264325 L 92.577218 345.264325 C 51.021708 345.264325 29.681107 324.287184 29.681107 285.304664 L 29.681107 209.532687 C 29.681107 197.407264 23.434304 191.892818 13.509181 191.892818 L 0.99972 191.892818 L 0.99972 154.372341 Z M 13.493326 154.372341 " stroke="#2d334a" stroke-width="2" stroke-opacity="1" stroke-miterlimit="4"/></g><path fill="#fcf1d8" d="M 55.347656 53.019531 C 55.320312 52.410156 55.484375 51.859375 55.839844 51.363281 C 56.167969 50.945312 56.703125 50.65625 57.453125 50.5 C 56.984375 49.039062 55.691406 48.308594 53.574219 48.308594 C 52.703125 48.292969 51.882812 48.480469 51.113281 48.878906 C 50.339844 49.273438 49.710938 49.832031 49.222656 50.546875 C 48.132812 52.042969 47.585938 54.046875 47.585938 56.566406 C 47.585938 59.148438 48.101562 61.167969 49.128906 62.628906 C 50.160156 64.09375 51.59375 64.824219 53.433594 64.824219 C 54.507812 64.839844 55.476562 64.519531 56.332031 63.867188 C 57.230469 63.160156 57.808594 62.25 58.0625 61.136719 L 58.621094 59.226562 C 58.832031 58.84375 59.125 58.542969 59.503906 58.324219 C 59.882812 58.109375 60.289062 58.003906 60.726562 58.011719 C 61.40625 57.988281 62 58.207031 62.503906 58.664062 C 62.992188 59.121094 63.226562 59.679688 63.203125 60.34375 C 63.203125 61.152344 62.9375 62.109375 62.410156 63.214844 C 61.933594 64.238281 61.324219 65.179688 60.585938 66.035156 C 59.652344 66.960938 58.574219 67.675781 57.359375 68.179688 C 56.058594 68.722656 54.703125 68.988281 53.292969 68.976562 C 50.050781 68.976562 47.414062 67.839844 45.390625 65.570312 C 43.457031 63.363281 42.488281 60.453125 42.492188 56.847656 C 42.492188 53.085938 43.488281 50.035156 45.484375 47.703125 C 47.539062 45.339844 50.269531 44.160156 53.664062 44.15625 C 56.222656 44.15625 58.355469 44.84375 60.070312 46.210938 C 61.785156 47.640625 62.644531 49.429688 62.644531 51.574219 C 62.644531 52.851562 62.277344 53.898438 61.542969 54.722656 C 61.183594 55.132812 60.75 55.449219 60.246094 55.664062 C 59.742188 55.878906 59.214844 55.980469 58.667969 55.960938 C 57.765625 55.984375 56.980469 55.699219 56.308594 55.097656 C 55.664062 54.554688 55.34375 53.863281 55.347656 53.019531 Z M 55.347656 53.019531 " fill-opacity="1" fill-rule="nonzero"/><path fill="#fcf1d8" d="M 77.277344 68.976562 C 73.941406 68.976562 71.277344 67.839844 69.28125 65.570312 C 67.289062 63.300781 66.289062 60.296875 66.289062 56.566406 C 66.289062 52.804688 67.289062 49.820312 69.28125 47.609375 C 71.277344 45.308594 73.988281 44.15625 77.417969 44.15625 C 80.847656 44.15625 83.574219 45.277344 85.601562 47.515625 C 87.5625 49.726562 88.546875 52.695312 88.546875 56.425781 C 88.546875 60.222656 87.53125 63.238281 85.507812 65.476562 C 83.480469 67.808594 80.738281 68.976562 77.277344 68.976562 Z M 77.511719 48.308594 C 75.640625 48.308594 74.183594 48.976562 73.140625 50.316406 C 72.09375 51.652344 71.527344 53.566406 71.433594 56.054688 L 71.433594 56.566406 C 71.433594 59.148438 71.949219 61.167969 72.976562 62.632812 C 74.003906 64.09375 75.453125 64.824219 77.324219 64.824219 C 79.226562 64.824219 80.730469 64.101562 81.835938 62.652344 C 82.945312 61.207031 83.496094 59.164062 83.496094 56.519531 C 83.496094 51.046875 81.5 48.308594 77.511719 48.308594 Z M 77.511719 48.308594 " fill-opacity="1" fill-rule="nonzero"/><path fill="#fcf1d8" d="M 102.574219 44.15625 C 103.6875 44.144531 104.769531 44.324219 105.824219 44.695312 C 106.773438 45.03125 107.640625 45.523438 108.417969 46.164062 L 108.417969 43.691406 C 108.417969 43.132812 108.410156 42.6875 108.394531 42.363281 C 108.386719 42.121094 108.363281 41.878906 108.324219 41.640625 C 108.285156 41.335938 108.160156 41.070312 107.949219 40.84375 C 107.773438 40.882812 107.59375 40.90625 107.414062 40.914062 C 107.179688 40.929688 107 40.9375 106.875 40.9375 L 106.96875 40.9375 C 106.777344 41.003906 106.582031 41.042969 106.382812 41.054688 C 106.179688 41.070312 106 41.078125 105.84375 41.078125 C 104.222656 41.078125 103.414062 40.394531 103.414062 39.027344 C 103.414062 37.625 104.410156 36.925781 106.40625 36.925781 L 106.734375 36.925781 C 106.890625 36.925781 107.046875 36.941406 107.203125 36.972656 C 107.296875 36.972656 107.390625 36.980469 107.484375 36.996094 C 107.574219 37.011719 107.667969 37.023438 107.761719 37.023438 L 109.167969 37.160156 C 109.226562 37.160156 109.359375 37.15625 109.5625 37.136719 C 109.765625 37.121094 109.976562 37.097656 110.195312 37.066406 C 110.445312 37.035156 110.667969 37.011719 110.871094 36.996094 C 111.074219 36.980469 111.269531 36.972656 111.457031 36.972656 C 112.796875 36.972656 113.46875 37.78125 113.46875 39.398438 L 113.46875 40.097656 C 113.414062 40.410156 113.398438 40.71875 113.421875 41.035156 C 113.421875 41.1875 113.414062 41.367188 113.398438 41.570312 C 113.378906 41.773438 113.375 41.980469 113.375 42.199219 C 113.375 42.449219 113.328125 43.601562 113.234375 45.652344 C 113.234375 45.808594 113.226562 45.976562 113.210938 46.164062 C 113.195312 46.351562 113.183594 46.507812 113.183594 46.632812 C 113.152344 47.128906 113.136719 47.574219 113.136719 47.960938 L 113.136719 53.300781 L 113.230469 60.671875 C 113.261719 61.667969 113.292969 62.445312 113.324219 63.003906 C 113.332031 63.382812 113.378906 63.757812 113.464844 64.125 C 113.464844 64.3125 113.574219 64.40625 113.792969 64.40625 C 113.925781 64.40625 114.058594 64.398438 114.191406 64.382812 C 114.308594 64.363281 114.425781 64.339844 114.539062 64.3125 C 114.636719 64.3125 114.730469 64.304688 114.820312 64.285156 C 114.898438 64.273438 114.976562 64.265625 115.054688 64.261719 C 115.152344 64.226562 115.253906 64.210938 115.359375 64.214844 L 115.664062 64.214844 C 117.253906 64.214844 118.046875 64.902344 118.046875 66.269531 C 118.046875 67.699219 117.128906 68.414062 115.289062 68.414062 C 115.132812 68.414062 114.921875 68.40625 114.65625 68.390625 C 114.394531 68.375 114.136719 68.351562 113.886719 68.320312 C 113.753906 68.320312 113.621094 68.3125 113.488281 68.296875 C 113.347656 68.28125 113.199219 68.257812 113.042969 68.226562 C 112.875 68.195312 112.703125 68.179688 112.53125 68.179688 C 112.496094 68.179688 112.464844 68.191406 112.4375 68.207031 C 112.390625 68.222656 112.34375 68.230469 112.296875 68.230469 L 112.0625 68.230469 C 111.9375 68.230469 111.8125 68.246094 111.6875 68.273438 L 111.78125 68.273438 C 111.414062 68.367188 111.039062 68.414062 110.660156 68.414062 C 109.664062 68.414062 109.039062 67.933594 108.789062 66.96875 C 107.230469 68.304688 105.1875 68.972656 102.664062 68.976562 C 99.359375 68.976562 96.757812 67.808594 94.855469 65.476562 C 92.890625 63.207031 91.910156 60.222656 91.910156 56.519531 C 91.894531 54.8125 92.148438 53.148438 92.683594 51.527344 C 93.148438 50.089844 93.855469 48.785156 94.808594 47.609375 C 96.742188 45.308594 99.332031 44.15625 102.574219 44.15625 Z M 108.136719 60.296875 C 108.199219 59.800781 108.246094 59.25 108.277344 58.640625 C 108.308594 58.035156 108.324219 57.359375 108.324219 56.613281 C 108.324219 55.648438 108.300781 54.847656 108.253906 54.210938 C 108.207031 53.574219 108.152344 53.082031 108.089844 52.742188 C 107.839844 51.3125 107.292969 50.269531 106.453125 49.617188 C 105.40625 48.757812 104.207031 48.324219 102.851562 48.308594 C 101.015625 48.308594 99.578125 49.03125 98.550781 50.480469 C 97.523438 51.925781 97.007812 53.90625 97.007812 56.425781 C 97.007812 59.070312 97.546875 61.132812 98.621094 62.609375 C 99.121094 63.328125 99.765625 63.882812 100.546875 64.277344 C 101.332031 64.671875 102.164062 64.851562 103.039062 64.824219 C 104.441406 64.824219 105.605469 64.414062 106.523438 63.589844 C 107.492188 62.703125 108.03125 61.605469 108.136719 60.296875 Z M 108.136719 60.296875 " fill-opacity="1" fill-rule="nonzero"/><path fill="#fcf1d8" d="M 141.519531 54.605469 C 141.519531 55.324219 141.507812 55.882812 141.476562 56.285156 C 141.46875 56.625 141.375 56.933594 141.195312 57.21875 C 141.027344 57.453125 140.800781 57.582031 140.515625 57.617188 C 140.105469 57.671875 139.691406 57.695312 139.277344 57.6875 L 125.203125 57.6875 C 125.078125 57.6875 125.015625 57.703125 125.015625 57.734375 C 125.015625 59.816406 125.625 61.511719 126.839844 62.820312 C 127.289062 63.347656 127.820312 63.78125 128.429688 64.113281 C 129.039062 64.449219 129.6875 64.667969 130.375 64.765625 C 131.066406 64.863281 131.75 64.839844 132.429688 64.6875 C 133.109375 64.539062 133.738281 64.273438 134.320312 63.890625 C 135.226562 63.328125 135.835938 62.535156 136.144531 61.511719 L 136.566406 60.253906 C 136.734375 59.804688 137.007812 59.433594 137.382812 59.132812 C 137.777344 58.835938 138.222656 58.695312 138.714844 58.714844 C 140.335938 58.714844 141.144531 59.492188 141.148438 61.046875 C 141.148438 63.160156 140.054688 65.027344 137.875 66.644531 C 136.859375 67.410156 135.746094 67.996094 134.539062 68.394531 C 133.328125 68.792969 132.085938 68.988281 130.8125 68.976562 C 127.445312 68.976562 124.78125 67.871094 122.816406 65.664062 C 120.882812 63.457031 119.917969 60.53125 119.917969 56.894531 C 119.917969 53.222656 120.949219 50.175781 123.003906 47.75 C 125.09375 45.355469 127.820312 44.15625 131.1875 44.15625 C 132.625 44.132812 134.011719 44.382812 135.347656 44.902344 C 136.589844 45.414062 137.679688 46.144531 138.621094 47.097656 C 140.554688 49.117188 141.519531 51.621094 141.519531 54.605469 Z M 136.425781 53.488281 C 136.429688 52.800781 136.300781 52.140625 136.03125 51.507812 C 135.761719 50.875 135.378906 50.324219 134.882812 49.847656 C 133.789062 48.824219 132.574219 48.308594 131.234375 48.308594 C 129.863281 48.308594 128.523438 48.871094 127.214844 49.988281 C 126.03125 51.078125 125.4375 52.246094 125.4375 53.488281 Z M 136.425781 53.488281 " fill-opacity="1" fill-rule="nonzero"/><path stroke-linecap="round" transform="matrix(0.246376, 0, 0, 0.245803, 4.433381, 13.339929)" fill="none" stroke-linejoin="round" d="M 206.652721 161.428288 C 206.541737 158.949172 207.20764 156.708432 208.650429 154.690176 C 209.982235 152.989757 212.154347 151.813765 215.198474 151.178094 C 213.295894 145.234571 208.047946 142.26281 199.454628 142.26281 C 195.919001 142.199242 192.589486 142.962048 189.466085 144.583008 C 186.326828 146.188078 183.774201 148.460601 181.792347 151.368796 C 177.368849 157.455345 175.149173 165.607825 175.149173 175.858019 C 175.149173 186.362481 177.242011 194.578528 181.411831 200.522051 C 185.597506 206.481467 191.416229 209.453228 198.883854 209.453228 C 203.243932 209.516795 207.17593 208.21367 210.648138 205.559744 C 214.294749 202.683333 216.641263 198.980549 217.671827 194.451394 L 219.939068 186.680317 C 220.795229 185.122923 221.984341 183.899256 223.52226 183.009317 C 225.060178 182.135269 226.709081 181.706192 228.484822 181.737975 C 231.243562 181.642624 233.653496 182.532564 235.698769 184.391901 C 237.680623 186.251239 238.631913 188.523762 238.536784 191.225364 C 238.536784 194.514961 237.458655 198.408446 235.318253 202.905818 C 233.383964 207.069462 230.910611 210.89938 227.914048 214.379678 C 224.124743 218.146028 219.74881 221.054223 214.817958 223.104262 C 209.5383 225.313218 204.036674 226.393859 198.31308 226.346184 C 185.153571 226.346184 174.451561 221.721677 166.238759 212.488557 C 158.390618 203.509705 154.45862 191.670334 154.474475 177.002227 C 154.474475 161.698449 158.517456 149.286973 166.619275 139.799585 C 174.958915 130.185062 186.041441 125.385746 199.819289 125.369854 C 210.204202 125.369854 218.86094 128.166806 225.82121 133.728927 C 232.78148 139.545316 236.269543 146.823749 236.269543 155.548332 C 236.269543 160.744942 234.779189 165.003938 231.798481 168.357102 C 230.339837 170.025738 228.579951 171.312972 226.534677 172.187019 C 224.489404 173.061067 222.349002 173.474253 220.129326 173.394794 C 216.46686 173.490145 213.280039 172.330045 210.553009 169.882712 C 207.936962 167.673755 206.636866 164.860912 206.652721 161.428288 Z M 206.652721 161.428288 " stroke="#2d334a" stroke-width="2" stroke-opacity="1" stroke-miterlimit="4"/><path stroke-linecap="round" transform="matrix(0.246376, 0, 0, 0.245803, 4.433381, 13.339929)" fill="none" stroke-linejoin="round" d="M 295.661737 226.346184 C 282.121712 226.346184 271.308718 221.721677 263.206899 212.488557 C 255.120936 203.255437 251.0621 191.034663 251.0621 175.858019 C 251.0621 160.554241 255.120936 148.412926 263.206899 139.418182 C 271.308718 130.057927 282.31197 125.369854 296.23251 125.369854 C 310.153051 125.369854 321.219723 129.930793 329.448379 139.036779 C 337.407504 148.031523 341.402921 160.109271 341.402921 175.285915 C 341.402921 190.732719 337.280666 203.001168 329.067864 212.107154 C 320.839207 221.594543 309.709116 226.346184 295.661737 226.346184 Z M 296.613026 142.26281 C 289.018563 142.26281 283.104711 144.980303 278.871472 150.431181 C 274.622377 155.866168 272.323427 163.653137 271.942911 173.776197 L 271.942911 175.858019 C 271.942911 186.362481 274.035748 194.578528 278.205569 200.537943 C 282.375389 206.481467 288.257531 209.453228 295.851995 209.453228 C 303.573297 209.453228 309.677406 206.51325 314.164323 200.617402 C 318.667095 194.737446 320.902626 186.426048 320.902626 175.667318 C 320.902626 153.402943 312.800808 142.26281 296.613026 142.26281 Z M 296.613026 142.26281 " stroke="#2d334a" stroke-width="2" stroke-opacity="1" stroke-miterlimit="4"/><path stroke-linecap="round" transform="matrix(0.246376, 0, 0, 0.245803, 4.433381, 13.339929)" fill="none" stroke-linejoin="round" d="M 398.337616 125.369854 C 402.856243 125.322179 407.248031 126.0532 411.528835 127.562919 C 415.381558 128.929611 418.901331 130.931975 422.056442 133.538226 L 422.056442 123.478733 C 422.056442 121.20621 422.024732 119.394547 421.961313 118.07553 C 421.929603 117.09024 421.834474 116.10495 421.675926 115.135552 C 421.517378 113.895994 421.010023 112.815353 420.153862 111.89363 C 419.440395 112.052548 418.711073 112.147899 417.981751 112.179682 C 417.030461 112.243249 416.301139 112.275033 415.793784 112.275033 L 416.1743 112.275033 C 415.397413 112.545193 414.604672 112.704111 413.796075 112.751786 C 412.971624 112.815353 412.242302 112.847137 411.608109 112.847137 C 405.028354 112.847137 401.746405 110.066076 401.746405 104.503955 C 401.746405 98.798809 405.789386 95.954181 413.891204 95.954181 L 415.22301 95.954181 C 415.857203 95.954181 416.491397 96.017748 417.12559 96.144883 C 417.506106 96.144883 417.886622 96.176666 418.267138 96.240233 C 418.631799 96.3038 419.012315 96.351476 419.39283 96.351476 L 425.100569 96.907688 C 425.338392 96.907688 425.877456 96.891796 426.701907 96.812337 C 427.526358 96.74877 428.382519 96.653419 429.27039 96.526285 C 430.285099 96.399151 431.188824 96.3038 432.013275 96.240233 C 432.837726 96.176666 433.630468 96.144883 434.3915 96.144883 C 439.829706 96.144883 442.556737 99.43448 442.556737 106.013674 L 442.556737 108.858301 C 442.33477 110.129643 442.27135 111.385093 442.366479 112.672327 C 442.366479 113.292106 442.33477 114.023128 442.27135 114.8495 C 442.192076 115.675872 442.176221 116.518136 442.176221 117.408076 C 442.176221 118.425149 441.985963 123.113222 441.605447 131.456403 C 441.605447 132.092074 441.573738 132.775421 441.510318 133.538226 C 441.446899 134.301031 441.399335 134.936702 441.399335 135.445239 C 441.272496 137.463494 441.209077 139.275156 441.209077 140.848442 L 441.209077 162.572496 L 441.589593 192.560273 C 441.716431 196.612675 441.84327 199.775138 441.970109 202.047662 C 442.001818 203.589164 442.192076 205.114774 442.540882 206.608601 C 442.540882 207.371406 442.984818 207.752808 443.872688 207.752808 C 444.411752 207.752808 444.950817 207.721025 445.489881 207.657458 C 445.965526 207.577999 446.441171 207.482648 446.900961 207.371406 C 447.297331 207.371406 447.677847 207.339622 448.042508 207.260163 C 448.359605 207.212488 448.676702 207.180705 448.993798 207.164813 C 449.390169 207.021787 449.802395 206.95822 450.230475 206.974112 L 451.467152 206.974112 C 457.920068 206.974112 461.138598 209.771064 461.138598 215.333184 C 461.138598 221.149574 457.412713 224.057768 449.945088 224.057768 C 449.310895 224.057768 448.454734 224.025985 447.376606 223.962418 C 446.314332 223.89885 445.267913 223.8035 444.253204 223.676366 C 443.71414 223.676366 443.175076 223.644582 442.636011 223.581015 C 442.065237 223.517448 441.462754 223.422097 440.828561 223.294963 C 440.146803 223.167829 439.449191 223.104262 438.751578 223.104262 C 438.608885 223.104262 438.482046 223.151937 438.371062 223.215504 C 438.180804 223.279071 437.990546 223.310855 437.800288 223.310855 L 436.848998 223.310855 C 436.341644 223.310855 435.834289 223.374422 435.326935 223.485664 L 435.707451 223.485664 C 434.217097 223.867067 432.695033 224.057768 431.157114 224.057768 C 427.114133 224.057768 424.57736 222.10308 423.562651 218.177812 C 417.236574 223.612798 408.944497 226.330292 398.702277 226.346184 C 385.289091 226.346184 374.729774 221.594543 367.008472 212.107154 C 359.033492 202.874034 355.05393 190.732719 355.05393 175.667318 C 354.990511 168.722613 356.021075 161.952717 358.193186 155.357631 C 360.079911 149.509458 362.949635 144.201606 366.818214 139.418182 C 374.666355 130.057927 385.178107 125.369854 398.337616 125.369854 Z M 420.914894 191.034663 C 421.168571 189.016407 421.358829 186.775667 421.485668 184.296551 C 421.612507 181.833326 421.675926 179.084049 421.675926 176.04872 C 421.675926 172.123452 421.580797 168.865638 421.390539 166.275279 C 421.200281 163.68492 420.978313 161.682557 420.724636 160.299973 C 419.709927 154.483583 417.490251 150.24048 414.081462 147.586554 C 409.832368 144.090363 404.964935 142.326377 399.463309 142.26281 C 392.011539 142.26281 386.176961 145.202788 382.007141 151.098636 C 377.837321 156.978592 375.744483 165.035721 375.744483 175.285915 C 375.744483 186.044646 377.93245 194.435502 382.292528 200.442593 C 384.321946 203.366679 386.937993 205.623311 390.108959 207.22838 C 393.29578 208.833449 396.672859 209.564471 400.224341 209.453228 C 405.916225 209.453228 410.640964 207.784592 414.366849 204.431428 C 418.298847 200.823995 420.486814 196.358407 420.914894 191.034663 Z M 420.914894 191.034663 " stroke="#2d334a" stroke-width="2" stroke-opacity="1" stroke-miterlimit="4"/><path stroke-linecap="round" transform="matrix(0.246376, 0, 0, 0.245803, 4.433381, 13.339929)" fill="none" stroke-linejoin="round" d="M 556.410272 167.880349 C 556.410272 170.804435 556.362708 173.076958 556.235869 174.713811 C 556.204159 176.096395 555.823643 177.351846 555.094321 178.511945 C 554.412563 179.465451 553.492983 179.98988 552.335581 180.132906 C 550.670824 180.355391 548.990212 180.450741 547.3096 180.418958 L 490.184647 180.418958 C 489.677292 180.418958 489.423615 180.482525 489.423615 180.609659 C 489.423615 189.079974 491.896968 195.977004 496.827821 201.300748 C 498.651126 203.446138 500.807383 205.210125 503.280736 206.560925 C 505.75409 207.927618 508.385992 208.817557 511.176442 209.214852 C 513.982747 209.612146 516.757342 209.516795 519.516082 208.897016 C 522.274823 208.293129 524.82745 207.212488 527.18982 205.655094 C 530.868141 203.366679 533.341494 200.140649 534.594026 195.977004 L 536.306347 190.859853 C 536.988105 189.032299 538.097943 187.522581 539.620007 186.298914 C 541.221345 185.091139 543.028795 184.519035 545.026504 184.598494 C 551.606258 184.598494 554.888208 187.760957 554.904063 194.085883 C 554.904063 202.683333 550.464711 210.2796 541.617716 216.858795 C 537.49546 219.973582 532.976833 222.357348 528.077691 223.978309 C 523.162693 225.59927 518.120857 226.393859 512.952183 226.346184 C 499.285319 226.346184 488.472325 221.848812 480.497346 212.86996 C 472.649205 203.891107 468.733062 191.988169 468.733062 177.192928 C 468.733062 162.254661 472.918737 149.859077 481.258377 139.990286 C 489.740712 130.248629 500.807383 125.369854 514.474246 125.369854 C 520.308824 125.274504 525.937289 126.291577 531.35964 128.405183 C 536.401476 130.487005 540.824974 133.458767 544.645988 137.33636 C 552.494129 145.552407 556.410272 155.739034 556.410272 167.880349 Z M 535.735574 163.335301 C 535.751428 160.538349 535.228219 157.852639 534.134236 155.278172 C 533.040252 152.703705 531.486479 150.462965 529.472916 148.524168 C 525.033563 144.360524 520.102711 142.26281 514.664504 142.26281 C 509.099459 142.26281 503.661252 144.551225 498.349884 149.096272 C 493.545871 153.530077 491.135937 158.281717 491.135937 163.335301 Z M 535.735574 163.335301 " stroke="#2d334a" stroke-width="2" stroke-opacity="1" stroke-miterlimit="4"/></svg>